<svg xmlns="http://www.w3.org/2000/svg" width="900" height="560" viewBox="0 0 900 560">
<rect width="100%" height="100%" fill="white"/>
<line x1="90" y1="485" x2="870" y2="485" stroke="#222"/>
<line x1="90" y1="35" x2="90" y2="485" stroke="#222"/>
<text x="90.0" y="507" text-anchor="middle" font-size="12">4.4e+03</text>
<text x="80" y="489.0" text-anchor="end" font-size="12">0</text>
<text x="246.0" y="507" text-anchor="middle" font-size="12">5.4e+03</text>
<text x="80" y="399.0" text-anchor="end" font-size="12">0.2</text>
<text x="402.0" y="507" text-anchor="middle" font-size="12">6.4e+03</text>
<text x="80" y="309.0" text-anchor="end" font-size="12">0.4</text>
<text x="558.0" y="507" text-anchor="middle" font-size="12">7.3e+03</text>
<text x="80" y="219.0" text-anchor="end" font-size="12">0.6</text>
<text x="714.0" y="507" text-anchor="middle" font-size="12">8.3e+03</text>
<text x="80" y="129.0" text-anchor="end" font-size="12">0.8</text>
<text x="870.0" y="507" text-anchor="middle" font-size="12">9.3e+03</text>
<text x="80" y="39.0" text-anchor="end" font-size="12">1</text>
<line x1="345.4" y1="35" x2="345.4" y2="485" stroke="#222" stroke-dasharray="5 5"/>
<polyline points="155.4,480.5 316.8,476.0 318.7,471.5 330.8,467.0 331.4,462.5 343.6,458.0 346.9,453.5 351.9,449.0 356.3,444.5 360.7,440.0 364.8,435.5 364.8,431.0 367.2,426.5 367.7,422.0 372.0,417.5 372.1,413.0 372.3,408.5 373.4,404.0 376.0,399.5 378.1,395.0 379.4,390.5 382.8,386.0 383.4,381.5 384.4,377.0 388.7,372.5 389.1,368.0 392.6,363.5 396.8,359.0 400.3,354.5 400.7,350.0 403.8,345.5 406.7,341.0 407.9,336.5 408.1,332.0 408.8,327.5 410.7,323.0 414.3,318.5 417.9,314.0 419.3,309.5 421.7,305.0 426.5,300.5 429.0,296.0 429.0,291.5 429.8,287.0 430.0,282.5 431.9,278.0 433.7,273.5 435.6,269.0 440.1,264.5 442.6,260.0 443.7,255.5 445.9,251.0 447.2,246.5 450.0,242.0 460.4,237.5 464.6,233.0 464.8,228.5 467.7,224.0 472.5,219.5 473.1,215.0 475.1,210.5 477.6,206.0 478.2,201.5 479.2,197.0 480.2,192.5 484.7,188.0 487.8,183.5 497.2,179.0 498.1,174.5 500.6,170.0 503.6,165.5 507.0,161.0 510.6,156.5 519.3,152.0 520.4,147.5 522.4,143.0 533.2,138.5 535.3,134.0 539.1,129.5 539.6,125.0 547.9,120.5 560.8,116.0 564.9,111.5 565.0,107.0 578.8,102.5 579.2,98.0 588.0,93.5 589.9,89.0 594.7,84.5 597.4,80.0 613.5,75.5 614.4,71.0 616.3,66.5 626.0,62.0 630.7,57.5 649.6,53.0 651.7,48.5 652.9,44.0 756.5,39.5 764.9,35.0" fill="none" stroke="#4c78a8" stroke-width="2" stroke-dasharray="8 5"/>
<line x1="635" y1="35" x2="665" y2="35" stroke="#4c78a8" stroke-width="2" stroke-dasharray="8 5"/>
<text x="675" y="39" font-size="12">mixed / baseline</text>
<polyline points="90.0,480.5 131.3,476.0 272.5,471.5 294.6,467.0 302.0,462.5 303.7,458.0 310.2,453.5 320.0,449.0 320.6,444.5 332.7,440.0 333.3,435.5 333.5,431.0 334.9,426.5 341.3,422.0 343.5,417.5 346.9,413.0 348.5,408.5 354.0,404.0 354.8,399.5 356.9,395.0 357.9,390.5 358.3,386.0 358.9,381.5 363.3,377.0 364.8,372.5 368.2,368.0 368.9,363.5 369.8,359.0 370.6,354.5 371.3,350.0 371.4,345.5 372.8,341.0 374.7,336.5 377.5,332.0 379.5,327.5 384.0,323.0 385.1,318.5 385.3,314.0 386.1,309.5 390.6,305.0 391.5,300.5 391.9,296.0 392.0,291.5 392.7,287.0 396.2,282.5 397.2,278.0 398.3,273.5 401.5,269.0 402.2,264.5 402.3,260.0 405.6,255.5 407.8,251.0 408.5,246.5 413.0,242.0 415.5,237.5 417.2,233.0 417.3,228.5 421.0,224.0 421.8,219.5 428.8,215.0 429.6,210.5 437.7,206.0 437.8,201.5 440.0,197.0 443.0,192.5 444.0,188.0 446.2,183.5 446.6,179.0 446.9,174.5 449.4,170.0 450.8,165.5 450.8,161.0 451.3,156.5 452.0,152.0 456.1,147.5 466.9,143.0 468.2,138.5 471.0,134.0 471.1,129.5 472.5,125.0 472.8,120.5 481.7,116.0 490.0,111.5 492.0,107.0 497.1,102.5 506.3,98.0 509.6,93.5 511.6,89.0 522.9,84.5 541.8,80.0 542.4,75.5 547.4,71.0 550.0,66.5 557.8,62.0 569.3,57.5 582.4,53.0 589.6,48.5 594.9,44.0 602.8,39.5 610.7,35.0" fill="none" stroke="#72b7b2" stroke-width="2"/>
<line x1="635" y1="53" x2="665" y2="53" stroke="#72b7b2" stroke-width="2"/>
<text x="675" y="57" font-size="12">mixed / candidate</text>
<polyline points="408.4,480.5 420.3,476.0 421.2,471.5 421.8,467.0 422.1,462.5 424.2,458.0 429.9,453.5 432.0,449.0 442.9,444.5 449.9,440.0 450.2,435.5 450.8,431.0 451.5,426.5 452.5,422.0 455.3,417.5 459.3,413.0 465.8,408.5 472.7,404.0 473.3,399.5 473.4,395.0 477.7,390.5 481.8,386.0 481.9,381.5 482.1,377.0 483.9,372.5 488.2,368.0 489.5,363.5 490.9,359.0 495.1,354.5 496.5,350.0 496.7,345.5 500.4,341.0 502.2,336.5 504.5,332.0 513.1,327.5 518.4,323.0 522.0,318.5 524.3,314.0 529.9,309.5 533.0,305.0 533.8,300.5 538.1,296.0 540.2,291.5 541.4,287.0 544.2,282.5 545.1,278.0 555.0,273.5 555.3,269.0 556.2,264.5 558.8,260.0 559.0,255.5 559.6,251.0 560.8,246.5 566.8,242.0 569.7,237.5 573.0,233.0 574.7,228.5 576.0,224.0 579.3,219.5 592.7,215.0 598.5,210.5 602.2,206.0 602.8,201.5 606.7,197.0 608.6,192.5 611.8,188.0 616.4,183.5 624.4,179.0 628.7,174.5 629.1,170.0 629.5,165.5 633.8,161.0 641.9,156.5 647.3,152.0 648.7,147.5 648.9,143.0 656.8,138.5 660.0,134.0 660.1,129.5 660.5,125.0 662.4,120.5 664.2,116.0 665.2,111.5 667.5,107.0 668.7,102.5 675.3,98.0 684.6,93.5 689.6,89.0 700.7,84.5 716.8,80.0 720.9,75.5 722.6,71.0 733.3,66.5 748.2,62.0 758.0,57.5 784.7,53.0 786.4,48.5 790.2,44.0 802.6,39.5 870.0,35.0" fill="none" stroke="#e45756" stroke-width="2" stroke-dasharray="8 5"/>
<line x1="635" y1="71" x2="665" y2="71" stroke="#e45756" stroke-width="2" stroke-dasharray="8 5"/>
<text x="675" y="75" font-size="12">all_directional / baseline</text>
<polyline points="218.1,480.5 326.0,476.0 363.0,471.5 364.0,467.0 382.9,462.5 383.7,458.0 383.8,453.5 385.9,449.0 389.6,444.5 394.2,440.0 401.6,435.5 411.3,431.0 415.4,426.5 417.0,422.0 418.8,417.5 419.3,413.0 420.4,408.5 429.6,404.0 430.3,399.5 433.1,395.0 437.3,390.5 438.0,386.0 447.6,381.5 448.4,377.0 450.6,372.5 450.7,368.0 451.1,363.5 452.7,359.0 452.7,354.5 455.9,350.0 457.2,345.5 457.8,341.0 458.5,336.5 460.4,332.0 465.1,327.5 472.4,323.0 473.1,318.5 478.0,314.0 478.8,309.5 482.8,305.0 484.4,300.5 485.2,296.0 488.6,291.5 495.6,287.0 499.6,282.5 500.4,278.0 501.0,273.5 502.2,269.0 505.4,264.5 505.5,260.0 508.7,255.5 509.2,251.0 511.5,246.5 515.9,242.0 515.9,237.5 516.1,233.0 519.1,228.5 520.0,224.0 528.1,219.5 528.4,215.0 528.4,210.5 530.2,206.0 531.9,201.5 533.4,197.0 538.8,192.5 539.8,188.0 543.3,183.5 544.2,179.0 545.7,174.5 547.8,170.0 550.9,165.5 557.8,161.0 559.3,156.5 563.1,152.0 571.4,147.5 572.2,143.0 578.9,138.5 580.1,134.0 581.5,129.5 589.2,125.0 592.1,120.5 593.5,116.0 599.5,111.5 599.5,107.0 600.4,102.5 601.3,98.0 602.3,93.5 605.0,89.0 607.2,84.5 614.5,80.0 626.0,75.5 641.0,71.0 642.3,66.5 646.7,62.0 648.4,57.5 687.8,53.0 696.2,48.5 698.0,44.0 748.8,39.5 855.0,35.0" fill="none" stroke="#f58518" stroke-width="2"/>
<line x1="635" y1="89" x2="665" y2="89" stroke="#f58518" stroke-width="2"/>
<text x="675" y="93" font-size="12">all_directional / candidate</text>
<text x="480.0" y="540" text-anchor="middle" font-size="14">Virtual completion time (s)</text>
<text x="20" y="260.0" text-anchor="middle" font-size="14" transform="rotate(-90 20 260.0)">Empirical cumulative probability</text>
</svg>
