<svg xmlns="http://www.w3.org/2000/svg" width="900" height="900" viewBox="0 0 900 900">
<rect width="100%" height="100%" fill="#fbfcfe"/>
<text x="450.0" y="29" text-anchor="middle" font-family="sans-serif" font-size="18" font-weight="600">Seed 869462 | opportunistic | 12/12 cleared | 9185.0 s</text>
<circle cx="450.00" cy="450.00" r="276.59" fill="#eef4ff" stroke="#6b7280" stroke-width="1.5" stroke-dasharray="6 5"/>
<line x1="173.41" y1="726.59" x2="173.41" y2="173.41" stroke="#dce3ec" stroke-width="0.7"/>
<line x1="173.41" y1="726.59" x2="726.59" y2="726.59" stroke="#dce3ec" stroke-width="0.7"/>
<line x1="265.61" y1="726.59" x2="265.61" y2="173.41" stroke="#dce3ec" stroke-width="0.7"/>
<line x1="173.41" y1="634.39" x2="726.59" y2="634.39" stroke="#dce3ec" stroke-width="0.7"/>
<line x1="357.80" y1="726.59" x2="357.80" y2="173.41" stroke="#dce3ec" stroke-width="0.7"/>
<line x1="173.41" y1="542.20" x2="726.59" y2="542.20" stroke="#dce3ec" stroke-width="0.7"/>
<line x1="450.00" y1="726.59" x2="450.00" y2="173.41" stroke="#dce3ec" stroke-width="0.7"/>
<line x1="173.41" y1="450.00" x2="726.59" y2="450.00" stroke="#dce3ec" stroke-width="0.7"/>
<line x1="542.20" y1="726.59" x2="542.20" y2="173.41" stroke="#dce3ec" stroke-width="0.7"/>
<line x1="173.41" y1="357.80" x2="726.59" y2="357.80" stroke="#dce3ec" stroke-width="0.7"/>
<line x1="634.39" y1="726.59" x2="634.39" y2="173.41" stroke="#dce3ec" stroke-width="0.7"/>
<line x1="173.41" y1="265.61" x2="726.59" y2="265.61" stroke="#dce3ec" stroke-width="0.7"/>
<line x1="726.59" y1="726.59" x2="726.59" y2="173.41" stroke="#dce3ec" stroke-width="0.7"/>
<line x1="173.41" y1="173.41" x2="726.59" y2="173.41" stroke="#dce3ec" stroke-width="0.7"/>
<polyline points="450.00,450.00 391.61,551.13 333.22,652.27 305.38,578.63 333.63,563.78 274.83,551.13 216.44,652.27 274.83,753.40 391.61,753.40 467.26,679.05 450.00,652.27 417.18,666.27 508.39,753.40 521.66,678.60 566.78,652.27 573.17,692.27 625.17,753.40 683.56,652.27 576.67,543.45 591.82,673.62 625.17,551.13 508.39,551.13 566.78,450.00 685.83,504.81 683.56,450.00 741.95,551.13 684.72,487.23 800.34,450.00 741.95,348.87 625.17,348.87 508.39,348.87 391.61,348.87 437.64,314.99 450.00,247.73 333.22,247.73 334.71,204.87 391.61,146.60 274.83,146.60 216.44,247.73 158.05,348.87 99.66,450.00 158.05,551.13 216.44,450.00 333.22,450.00 274.83,348.87 566.78,247.73 683.56,247.73 625.17,146.60 508.39,146.60" fill="none" stroke="#2563eb" stroke-width="2.0" stroke-linejoin="round" stroke-linecap="round" opacity="0.72"/>
<circle cx="450.00" cy="450.00" r="4.40" fill="#f59e0b" stroke="#7c2d12" stroke-width="0.8" opacity="0.95"/>
<circle cx="391.61" cy="551.13" r="4.40" fill="#f59e0b" stroke="#7c2d12" stroke-width="0.8" opacity="0.95"/>
<circle cx="333.22" cy="652.27" r="4.40" fill="#f59e0b" stroke="#7c2d12" stroke-width="0.8" opacity="0.95"/>
<circle cx="274.83" cy="551.13" r="2.80" fill="#94a3b8" stroke="#ffffff" stroke-width="0.5" opacity="0.75"/>
<circle cx="216.44" cy="652.27" r="2.80" fill="#94a3b8" stroke="#ffffff" stroke-width="0.5" opacity="0.75"/>
<circle cx="274.83" cy="753.40" r="2.80" fill="#94a3b8" stroke="#ffffff" stroke-width="0.5" opacity="0.75"/>
<circle cx="391.61" cy="753.40" r="4.40" fill="#f59e0b" stroke="#7c2d12" stroke-width="0.8" opacity="0.95"/>
<circle cx="450.00" cy="652.27" r="4.40" fill="#f59e0b" stroke="#7c2d12" stroke-width="0.8" opacity="0.95"/>
<circle cx="508.39" cy="753.40" r="4.40" fill="#f59e0b" stroke="#7c2d12" stroke-width="0.8" opacity="0.95"/>
<circle cx="566.78" cy="652.27" r="4.40" fill="#f59e0b" stroke="#7c2d12" stroke-width="0.8" opacity="0.95"/>
<circle cx="625.17" cy="753.40" r="4.40" fill="#f59e0b" stroke="#7c2d12" stroke-width="0.8" opacity="0.95"/>
<circle cx="683.56" cy="652.27" r="4.40" fill="#f59e0b" stroke="#7c2d12" stroke-width="0.8" opacity="0.95"/>
<circle cx="625.17" cy="551.13" r="4.40" fill="#f59e0b" stroke="#7c2d12" stroke-width="0.8" opacity="0.95"/>
<circle cx="508.39" cy="551.13" r="4.40" fill="#f59e0b" stroke="#7c2d12" stroke-width="0.8" opacity="0.95"/>
<circle cx="566.78" cy="450.00" r="4.40" fill="#f59e0b" stroke="#7c2d12" stroke-width="0.8" opacity="0.95"/>
<circle cx="683.56" cy="450.00" r="2.80" fill="#94a3b8" stroke="#ffffff" stroke-width="0.5" opacity="0.75"/>
<circle cx="741.95" cy="551.13" r="4.40" fill="#f59e0b" stroke="#7c2d12" stroke-width="0.8" opacity="0.95"/>
<circle cx="800.34" cy="450.00" r="2.80" fill="#94a3b8" stroke="#ffffff" stroke-width="0.5" opacity="0.75"/>
<circle cx="741.95" cy="348.87" r="2.80" fill="#94a3b8" stroke="#ffffff" stroke-width="0.5" opacity="0.75"/>
<circle cx="625.17" cy="348.87" r="2.80" fill="#94a3b8" stroke="#ffffff" stroke-width="0.5" opacity="0.75"/>
<circle cx="508.39" cy="348.87" r="4.40" fill="#f59e0b" stroke="#7c2d12" stroke-width="0.8" opacity="0.95"/>
<circle cx="391.61" cy="348.87" r="4.40" fill="#f59e0b" stroke="#7c2d12" stroke-width="0.8" opacity="0.95"/>
<circle cx="450.00" cy="247.73" r="4.40" fill="#f59e0b" stroke="#7c2d12" stroke-width="0.8" opacity="0.95"/>
<circle cx="333.22" cy="247.73" r="4.40" fill="#f59e0b" stroke="#7c2d12" stroke-width="0.8" opacity="0.95"/>
<circle cx="391.61" cy="146.60" r="2.80" fill="#94a3b8" stroke="#ffffff" stroke-width="0.5" opacity="0.75"/>
<circle cx="274.83" cy="146.60" r="2.80" fill="#94a3b8" stroke="#ffffff" stroke-width="0.5" opacity="0.75"/>
<circle cx="216.44" cy="247.73" r="2.80" fill="#94a3b8" stroke="#ffffff" stroke-width="0.5" opacity="0.75"/>
<circle cx="158.05" cy="348.87" r="2.80" fill="#94a3b8" stroke="#ffffff" stroke-width="0.5" opacity="0.75"/>
<circle cx="99.66" cy="450.00" r="2.80" fill="#94a3b8" stroke="#ffffff" stroke-width="0.5" opacity="0.75"/>
<circle cx="158.05" cy="551.13" r="2.80" fill="#94a3b8" stroke="#ffffff" stroke-width="0.5" opacity="0.75"/>
<circle cx="216.44" cy="450.00" r="2.80" fill="#94a3b8" stroke="#ffffff" stroke-width="0.5" opacity="0.75"/>
<circle cx="333.22" cy="450.00" r="2.80" fill="#94a3b8" stroke="#ffffff" stroke-width="0.5" opacity="0.75"/>
<circle cx="274.83" cy="348.87" r="2.80" fill="#94a3b8" stroke="#ffffff" stroke-width="0.5" opacity="0.75"/>
<circle cx="566.78" cy="247.73" r="2.80" fill="#94a3b8" stroke="#ffffff" stroke-width="0.5" opacity="0.75"/>
<circle cx="683.56" cy="247.73" r="2.80" fill="#94a3b8" stroke="#ffffff" stroke-width="0.5" opacity="0.75"/>
<circle cx="625.17" cy="146.60" r="2.80" fill="#94a3b8" stroke="#ffffff" stroke-width="0.5" opacity="0.75"/>
<circle cx="508.39" cy="146.60" r="2.80" fill="#94a3b8" stroke="#ffffff" stroke-width="0.5" opacity="0.75"/>
<circle cx="333.47" cy="564.78" r="5.50" fill="#7c3aed" stroke="#4c1d95" stroke-width="1.0" opacity="0.95"/>
<text x="340.47" y="557.78" font-family="sans-serif" font-size="10" fill="#111827">10</text>
<line x1="416.87" y1="666.39" x2="441.09" y2="676.19" stroke="#dc2626" stroke-width="2.2"/>
<polygon points="416.87,660.39 411.37,671.39 422.37,671.39" fill="#dc2626" stroke="#7f1d1d" stroke-width="0.8"/>
<text x="423.87" y="659.39" font-family="sans-serif" font-size="10" fill="#111827">2</text>
<circle cx="467.96" cy="678.46" r="5.50" fill="#7c3aed" stroke="#4c1d95" stroke-width="1.0" opacity="0.95"/>
<text x="474.96" y="671.46" font-family="sans-serif" font-size="10" fill="#111827">15</text>
<circle cx="436.35" cy="315.79" r="5.50" fill="#7c3aed" stroke="#4c1d95" stroke-width="1.0" opacity="0.95"/>
<text x="443.35" y="308.79" font-family="sans-serif" font-size="10" fill="#111827">18</text>
<line x1="592.52" y1="673.96" x2="617.40" y2="666.01" stroke="#dc2626" stroke-width="2.2"/>
<polygon points="592.52,667.96 587.02,678.96 598.02,678.96" fill="#dc2626" stroke="#7f1d1d" stroke-width="0.8"/>
<text x="599.52" y="666.96" font-family="sans-serif" font-size="10" fill="#111827">16</text>
<line x1="305.21" y1="579.16" x2="330.62" y2="573.12" stroke="#dc2626" stroke-width="2.2"/>
<polygon points="305.21,573.16 299.71,584.16 310.71,584.16" fill="#dc2626" stroke="#7f1d1d" stroke-width="0.8"/>
<text x="312.21" y="572.16" font-family="sans-serif" font-size="10" fill="#111827">20</text>
<circle cx="520.81" cy="679.09" r="5.50" fill="#7c3aed" stroke="#4c1d95" stroke-width="1.0" opacity="0.95"/>
<text x="527.81" y="672.09" font-family="sans-serif" font-size="10" fill="#111827">1</text>
<circle cx="685.58" cy="505.50" r="5.50" fill="#7c3aed" stroke="#4c1d95" stroke-width="1.0" opacity="0.95"/>
<text x="692.58" y="498.50" font-family="sans-serif" font-size="10" fill="#111827">19</text>
<circle cx="573.55" cy="692.70" r="5.50" fill="#7c3aed" stroke="#4c1d95" stroke-width="1.0" opacity="0.95"/>
<text x="580.55" y="685.70" font-family="sans-serif" font-size="10" fill="#111827">13</text>
<circle cx="334.23" cy="205.65" r="5.50" fill="#7c3aed" stroke="#4c1d95" stroke-width="1.0" opacity="0.95"/>
<text x="341.23" y="198.65" font-family="sans-serif" font-size="10" fill="#111827">12</text>
<line x1="685.39" y1="486.13" x2="683.40" y2="512.18" stroke="#dc2626" stroke-width="2.2"/>
<polygon points="685.39,480.13 679.89,491.13 690.89,491.13" fill="#dc2626" stroke="#7f1d1d" stroke-width="0.8"/>
<text x="692.39" y="479.13" font-family="sans-serif" font-size="10" fill="#111827">11</text>
<circle cx="576.81" cy="543.62" r="5.50" fill="#7c3aed" stroke="#4c1d95" stroke-width="1.0" opacity="0.95"/>
<text x="583.81" y="536.62" font-family="sans-serif" font-size="10" fill="#111827">14</text>
<line x1="300.38" y1="573.63" x2="310.38" y2="583.63" stroke="#059669" stroke-width="2.4"/>
<line x1="300.38" y1="583.63" x2="310.38" y2="573.63" stroke="#059669" stroke-width="2.4"/>
<text x="312.38" y="590.63" font-family="sans-serif" font-size="9" fill="#065f46">C1:20</text>
<line x1="328.63" y1="558.78" x2="338.63" y2="568.78" stroke="#059669" stroke-width="2.4"/>
<line x1="328.63" y1="568.78" x2="338.63" y2="558.78" stroke="#059669" stroke-width="2.4"/>
<text x="340.63" y="575.78" font-family="sans-serif" font-size="9" fill="#065f46">C2:10</text>
<line x1="462.26" y1="674.05" x2="472.26" y2="684.05" stroke="#059669" stroke-width="2.4"/>
<line x1="462.26" y1="684.05" x2="472.26" y2="674.05" stroke="#059669" stroke-width="2.4"/>
<text x="474.26" y="691.05" font-family="sans-serif" font-size="9" fill="#065f46">C3:15</text>
<line x1="412.18" y1="661.27" x2="422.18" y2="671.27" stroke="#059669" stroke-width="2.4"/>
<line x1="412.18" y1="671.27" x2="422.18" y2="661.27" stroke="#059669" stroke-width="2.4"/>
<text x="424.18" y="678.27" font-family="sans-serif" font-size="9" fill="#065f46">C4:2</text>
<line x1="516.66" y1="673.60" x2="526.66" y2="683.60" stroke="#059669" stroke-width="2.4"/>
<line x1="516.66" y1="683.60" x2="526.66" y2="673.60" stroke="#059669" stroke-width="2.4"/>
<text x="528.66" y="690.60" font-family="sans-serif" font-size="9" fill="#065f46">C5:1</text>
<line x1="568.17" y1="687.27" x2="578.17" y2="697.27" stroke="#059669" stroke-width="2.4"/>
<line x1="568.17" y1="697.27" x2="578.17" y2="687.27" stroke="#059669" stroke-width="2.4"/>
<text x="580.17" y="704.27" font-family="sans-serif" font-size="9" fill="#065f46">C6:13</text>
<line x1="571.67" y1="538.45" x2="581.67" y2="548.45" stroke="#059669" stroke-width="2.4"/>
<line x1="571.67" y1="548.45" x2="581.67" y2="538.45" stroke="#059669" stroke-width="2.4"/>
<text x="583.67" y="555.45" font-family="sans-serif" font-size="9" fill="#065f46">C7:14</text>
<line x1="586.82" y1="668.62" x2="596.82" y2="678.62" stroke="#059669" stroke-width="2.4"/>
<line x1="586.82" y1="678.62" x2="596.82" y2="668.62" stroke="#059669" stroke-width="2.4"/>
<text x="598.82" y="685.62" font-family="sans-serif" font-size="9" fill="#065f46">C8:16</text>
<line x1="680.83" y1="499.81" x2="690.83" y2="509.81" stroke="#059669" stroke-width="2.4"/>
<line x1="680.83" y1="509.81" x2="690.83" y2="499.81" stroke="#059669" stroke-width="2.4"/>
<text x="692.83" y="516.81" font-family="sans-serif" font-size="9" fill="#065f46">C9:19</text>
<line x1="679.72" y1="482.23" x2="689.72" y2="492.23" stroke="#059669" stroke-width="2.4"/>
<line x1="679.72" y1="492.23" x2="689.72" y2="482.23" stroke="#059669" stroke-width="2.4"/>
<text x="691.72" y="499.23" font-family="sans-serif" font-size="9" fill="#065f46">C10:11</text>
<line x1="432.64" y1="309.99" x2="442.64" y2="319.99" stroke="#059669" stroke-width="2.4"/>
<line x1="432.64" y1="319.99" x2="442.64" y2="309.99" stroke="#059669" stroke-width="2.4"/>
<text x="444.64" y="326.99" font-family="sans-serif" font-size="9" fill="#065f46">C11:18</text>
<line x1="329.71" y1="199.87" x2="339.71" y2="209.87" stroke="#059669" stroke-width="2.4"/>
<line x1="329.71" y1="209.87" x2="339.71" y2="199.87" stroke="#059669" stroke-width="2.4"/>
<text x="341.71" y="216.87" font-family="sans-serif" font-size="9" fill="#065f46">C12:12</text>
<circle cx="450.00" cy="450.00" r="6.00" fill="#16a34a" stroke="#14532d" stroke-width="1.2" opacity="1.0"/>
<text x="458.00" y="466.00" font-family="sans-serif" font-size="10">START</text>
<rect x="503.39" y="141.60" width="10" height="10" fill="#111827"/>
<text x="516.39" y="138.60" font-family="sans-serif" font-size="10">END</text>
<rect x="66" y="758" width="320" height="115" rx="6" fill="#ffffff" stroke="#cbd5e1" opacity="0.94"/>
<circle cx="78" cy="778" r="4" fill="#2563eb"/>
<text x="89" y="782" font-family="sans-serif" font-size="11" fill="#1f2937">route</text>
<circle cx="78" cy="795" r="4" fill="#94a3b8"/>
<text x="89" y="799" font-family="sans-serif" font-size="11" fill="#1f2937">no-signal-only measurement site</text>
<circle cx="78" cy="812" r="4" fill="#f59e0b"/>
<text x="89" y="816" font-family="sans-serif" font-size="11" fill="#1f2937">site with &gt;=1 signal</text>
<circle cx="78" cy="829" r="4" fill="#059669"/>
<text x="89" y="833" font-family="sans-serif" font-size="11" fill="#1f2937">successful clear; Corder:channel</text>
<circle cx="78" cy="846" r="4" fill="#7c3aed"/>
<text x="89" y="850" font-family="sans-serif" font-size="11" fill="#1f2937">omnidirectional source (local truth)</text>
<circle cx="78" cy="863" r="4" fill="#dc2626"/>
<text x="89" y="867" font-family="sans-serif" font-size="11" fill="#1f2937">directional source + emission direction</text>
<text x="450.0" y="884" text-anchor="middle" font-family="sans-serif" font-size="12" fill="#374151">436 measurements at 37 sites; 398 no-signal; 38 signal; 32550 m movement</text>
</svg>