<svg xmlns="http://www.w3.org/2000/svg" width="900" height="560" viewBox="0 0 900 560">
<rect width="100%" height="100%" fill="white"/>
<line x1="90" y1="485" x2="870" y2="485" stroke="#222"/>
<line x1="90" y1="35" x2="90" y2="485" stroke="#222"/>
<text x="90.0" y="507" text-anchor="middle" font-size="12">0.00</text>
<text x="285.0" y="507" text-anchor="middle" font-size="12">0.25</text>
<text x="480.0" y="507" text-anchor="middle" font-size="12">0.50</text>
<text x="675.0" y="507" text-anchor="middle" font-size="12">0.75</text>
<text x="870.0" y="507" text-anchor="middle" font-size="12">1.00</text>
<text x="80" y="489.0" text-anchor="end" font-size="12">-8</text>
<text x="80" y="399.0" text-anchor="end" font-size="12">15</text>
<text x="80" y="309.0" text-anchor="end" font-size="12">38</text>
<text x="80" y="219.0" text-anchor="end" font-size="12">62</text>
<text x="80" y="129.0" text-anchor="end" font-size="12">85</text>
<text x="80" y="39.0" text-anchor="end" font-size="12">108</text>
<polyline points="90.0,244.5 285.0,391.9 480.0,438.4 675.0,450.1 870.0,454.0" fill="none" stroke="#4c78a8" stroke-width="2"/>
<circle cx="90.0" cy="244.5" r="4" fill="#4c78a8"/>
<circle cx="285.0" cy="391.9" r="4" fill="#4c78a8"/>
<circle cx="480.0" cy="438.4" r="4" fill="#4c78a8"/>
<circle cx="675.0" cy="450.1" r="4" fill="#4c78a8"/>
<circle cx="870.0" cy="454.0" r="4" fill="#4c78a8"/>
<line x1="630" y1="35" x2="660" y2="35" stroke="#4c78a8" stroke-width="2"/>
<text x="670" y="39" font-size="12">baseline, N=10</text>
<polyline points="90.0,116.5 285.0,353.1 480.0,426.8 675.0,446.2 870.0,454.0" fill="none" stroke="#72b7b2" stroke-width="2"/>
<circle cx="90.0" cy="116.5" r="4" fill="#72b7b2"/>
<circle cx="285.0" cy="353.1" r="4" fill="#72b7b2"/>
<circle cx="480.0" cy="426.8" r="4" fill="#72b7b2"/>
<circle cx="675.0" cy="446.2" r="4" fill="#72b7b2"/>
<circle cx="870.0" cy="454.0" r="4" fill="#72b7b2"/>
<line x1="630" y1="53" x2="660" y2="53" stroke="#72b7b2" stroke-width="2"/>
<text x="670" y="57" font-size="12">baseline, N=13</text>
<polyline points="90.0,66.0 285.0,209.6 480.0,337.6 675.0,403.5 870.0,438.4" fill="none" stroke="#e45756" stroke-width="2"/>
<circle cx="90.0" cy="66.0" r="4" fill="#e45756"/>
<circle cx="285.0" cy="209.6" r="4" fill="#e45756"/>
<circle cx="480.0" cy="337.6" r="4" fill="#e45756"/>
<circle cx="675.0" cy="403.5" r="4" fill="#e45756"/>
<circle cx="870.0" cy="438.4" r="4" fill="#e45756"/>
<line x1="630" y1="71" x2="660" y2="71" stroke="#e45756" stroke-width="2"/>
<text x="670" y="75" font-size="12">baseline, N=16</text>
<polyline points="90.0,205.7 285.0,372.5 480.0,426.8 675.0,454.0 870.0,454.0" fill="none" stroke="#f58518" stroke-width="2"/>
<circle cx="90.0" cy="205.7" r="4" fill="#f58518"/>
<circle cx="285.0" cy="372.5" r="4" fill="#f58518"/>
<circle cx="480.0" cy="426.8" r="4" fill="#f58518"/>
<circle cx="675.0" cy="454.0" r="4" fill="#f58518"/>
<circle cx="870.0" cy="454.0" r="4" fill="#f58518"/>
<line x1="630" y1="89" x2="660" y2="89" stroke="#f58518" stroke-width="2"/>
<text x="670" y="93" font-size="12">adaptive, N=10</text>
<polyline points="90.0,81.6 285.0,318.2 480.0,395.8 675.0,438.4 870.0,450.1" fill="none" stroke="#54a24b" stroke-width="2"/>
<circle cx="90.0" cy="81.6" r="4" fill="#54a24b"/>
<circle cx="285.0" cy="318.2" r="4" fill="#54a24b"/>
<circle cx="480.0" cy="395.8" r="4" fill="#54a24b"/>
<circle cx="675.0" cy="438.4" r="4" fill="#54a24b"/>
<circle cx="870.0" cy="450.1" r="4" fill="#54a24b"/>
<line x1="630" y1="107" x2="660" y2="107" stroke="#54a24b" stroke-width="2"/>
<text x="670" y="111" font-size="12">adaptive, N=13</text>
<polyline points="90.0,66.0 285.0,143.6 480.0,248.4 675.0,337.6 870.0,407.4" fill="none" stroke="#b279a2" stroke-width="2"/>
<circle cx="90.0" cy="66.0" r="4" fill="#b279a2"/>
<circle cx="285.0" cy="143.6" r="4" fill="#b279a2"/>
<circle cx="480.0" cy="248.4" r="4" fill="#b279a2"/>
<circle cx="675.0" cy="337.6" r="4" fill="#b279a2"/>
<circle cx="870.0" cy="407.4" r="4" fill="#b279a2"/>
<line x1="630" y1="125" x2="660" y2="125" stroke="#b279a2" stroke-width="2"/>
<text x="670" y="129" font-size="12">adaptive, N=16</text>
<text x="480.0" y="540" text-anchor="middle" font-size="14">Directional probability p</text>
<text x="20" y="260.0" text-anchor="middle" font-size="14" transform="rotate(-90 20 260.0)">Fully cleared within 6000 s (%)</text>
</svg>
