<svg xmlns="http://www.w3.org/2000/svg" width="900" height="900" viewBox="0 0 900 900">
<rect width="100%" height="100%" fill="#fbfcfe"/>
<text x="450.0" y="29" text-anchor="middle" font-family="sans-serif" font-size="18" font-weight="600">Official log | geometry_early_optical_clear_probe | 11 successful clears; total unknown | 9856.8 s</text>
<circle cx="450.00" cy="450.00" r="286.73" fill="#eef4ff" stroke="#6b7280" stroke-width="1.5" stroke-dasharray="6 5"/>
<line x1="163.27" y1="736.73" x2="163.27" y2="163.27" stroke="#dce3ec" stroke-width="0.7"/>
<line x1="163.27" y1="736.73" x2="736.73" y2="736.73" stroke="#dce3ec" stroke-width="0.7"/>
<line x1="258.85" y1="736.73" x2="258.85" y2="163.27" stroke="#dce3ec" stroke-width="0.7"/>
<line x1="163.27" y1="641.15" x2="736.73" y2="641.15" stroke="#dce3ec" stroke-width="0.7"/>
<line x1="354.42" y1="736.73" x2="354.42" y2="163.27" stroke="#dce3ec" stroke-width="0.7"/>
<line x1="163.27" y1="545.58" x2="736.73" y2="545.58" stroke="#dce3ec" stroke-width="0.7"/>
<line x1="450.00" y1="736.73" x2="450.00" y2="163.27" stroke="#dce3ec" stroke-width="0.7"/>
<line x1="163.27" y1="450.00" x2="736.73" y2="450.00" stroke="#dce3ec" stroke-width="0.7"/>
<line x1="545.58" y1="736.73" x2="545.58" y2="163.27" stroke="#dce3ec" stroke-width="0.7"/>
<line x1="163.27" y1="354.42" x2="736.73" y2="354.42" stroke="#dce3ec" stroke-width="0.7"/>
<line x1="641.15" y1="736.73" x2="641.15" y2="163.27" stroke="#dce3ec" stroke-width="0.7"/>
<line x1="163.27" y1="258.85" x2="736.73" y2="258.85" stroke="#dce3ec" stroke-width="0.7"/>
<line x1="736.73" y1="736.73" x2="736.73" y2="163.27" stroke="#dce3ec" stroke-width="0.7"/>
<line x1="163.27" y1="163.27" x2="736.73" y2="163.27" stroke="#dce3ec" stroke-width="0.7"/>
<polyline points="450.00,450.00 333.56,450.00 391.78,550.84 275.34,550.84 333.56,651.68 264.49,649.92 275.34,752.53 391.78,752.53 508.22,752.53 624.66,752.53 682.88,651.68 624.66,550.84 682.88,450.00 741.11,550.84 676.36,614.60 500.65,627.94 508.22,550.84 381.58,484.23 391.78,349.16 474.90,424.44 566.44,450.00 462.06,279.98 474.83,407.13 333.56,248.32 220.46,353.82 217.12,450.00 158.89,550.84 100.67,450.00 217.12,248.32 275.34,147.47 391.78,147.47 508.22,147.47 624.66,147.47 682.88,248.32 621.01,308.80 566.44,248.32 622.06,307.96 594.53,373.81 741.11,349.16 799.33,450.00 279.20,638.37 229.54,667.04 254.66,653.45" fill="none" stroke="#2563eb" stroke-width="2.0" stroke-linejoin="round" stroke-linecap="round" opacity="0.72"/>
<circle cx="450.00" cy="450.00" r="4.40" fill="#f59e0b" stroke="#7c2d12" stroke-width="0.8" opacity="0.95"/>
<circle cx="333.56" cy="450.00" r="4.40" fill="#f59e0b" stroke="#7c2d12" stroke-width="0.8" opacity="0.95"/>
<circle cx="391.78" cy="550.84" r="4.40" fill="#f59e0b" stroke="#7c2d12" stroke-width="0.8" opacity="0.95"/>
<circle cx="275.34" cy="550.84" r="4.40" fill="#f59e0b" stroke="#7c2d12" stroke-width="0.8" opacity="0.95"/>
<circle cx="333.56" cy="651.68" r="4.40" fill="#f59e0b" stroke="#7c2d12" stroke-width="0.8" opacity="0.95"/>
<circle cx="264.49" cy="649.92" r="2.80" fill="#94a3b8" stroke="#ffffff" stroke-width="0.5" opacity="0.75"/>
<circle cx="275.34" cy="752.53" r="4.40" fill="#f59e0b" stroke="#7c2d12" stroke-width="0.8" opacity="0.95"/>
<circle cx="391.78" cy="752.53" r="4.40" fill="#f59e0b" stroke="#7c2d12" stroke-width="0.8" opacity="0.95"/>
<circle cx="508.22" cy="752.53" r="2.80" fill="#94a3b8" stroke="#ffffff" stroke-width="0.5" opacity="0.75"/>
<circle cx="624.66" cy="752.53" r="2.80" fill="#94a3b8" stroke="#ffffff" stroke-width="0.5" opacity="0.75"/>
<circle cx="682.88" cy="651.68" r="2.80" fill="#94a3b8" stroke="#ffffff" stroke-width="0.5" opacity="0.75"/>
<circle cx="624.66" cy="550.84" r="4.40" fill="#f59e0b" stroke="#7c2d12" stroke-width="0.8" opacity="0.95"/>
<circle cx="682.88" cy="450.00" r="4.40" fill="#f59e0b" stroke="#7c2d12" stroke-width="0.8" opacity="0.95"/>
<circle cx="741.11" cy="550.84" r="4.40" fill="#f59e0b" stroke="#7c2d12" stroke-width="0.8" opacity="0.95"/>
<circle cx="500.65" cy="627.94" r="2.80" fill="#94a3b8" stroke="#ffffff" stroke-width="0.5" opacity="0.75"/>
<circle cx="508.22" cy="550.84" r="4.40" fill="#f59e0b" stroke="#7c2d12" stroke-width="0.8" opacity="0.95"/>
<circle cx="391.78" cy="349.16" r="4.40" fill="#f59e0b" stroke="#7c2d12" stroke-width="0.8" opacity="0.95"/>
<circle cx="474.90" cy="424.44" r="4.40" fill="#f59e0b" stroke="#7c2d12" stroke-width="0.8" opacity="0.95"/>
<circle cx="566.44" cy="450.00" r="2.80" fill="#94a3b8" stroke="#ffffff" stroke-width="0.5" opacity="0.75"/>
<circle cx="462.06" cy="279.98" r="4.40" fill="#f59e0b" stroke="#7c2d12" stroke-width="0.8" opacity="0.95"/>
<circle cx="333.56" cy="248.32" r="4.40" fill="#f59e0b" stroke="#7c2d12" stroke-width="0.8" opacity="0.95"/>
<circle cx="220.46" cy="353.82" r="2.80" fill="#94a3b8" stroke="#ffffff" stroke-width="0.5" opacity="0.75"/>
<circle cx="217.12" cy="450.00" r="2.80" fill="#94a3b8" stroke="#ffffff" stroke-width="0.5" opacity="0.75"/>
<circle cx="158.89" cy="550.84" r="2.80" fill="#94a3b8" stroke="#ffffff" stroke-width="0.5" opacity="0.75"/>
<circle cx="100.67" cy="450.00" r="2.80" fill="#94a3b8" stroke="#ffffff" stroke-width="0.5" opacity="0.75"/>
<circle cx="217.12" cy="248.32" r="2.80" fill="#94a3b8" stroke="#ffffff" stroke-width="0.5" opacity="0.75"/>
<circle cx="275.34" cy="147.47" r="2.80" fill="#94a3b8" stroke="#ffffff" stroke-width="0.5" opacity="0.75"/>
<circle cx="391.78" cy="147.47" r="2.80" fill="#94a3b8" stroke="#ffffff" stroke-width="0.5" opacity="0.75"/>
<circle cx="508.22" cy="147.47" r="2.80" fill="#94a3b8" stroke="#ffffff" stroke-width="0.5" opacity="0.75"/>
<circle cx="624.66" cy="147.47" r="2.80" fill="#94a3b8" stroke="#ffffff" stroke-width="0.5" opacity="0.75"/>
<circle cx="682.88" cy="248.32" r="4.40" fill="#f59e0b" stroke="#7c2d12" stroke-width="0.8" opacity="0.95"/>
<circle cx="566.44" cy="248.32" r="4.40" fill="#f59e0b" stroke="#7c2d12" stroke-width="0.8" opacity="0.95"/>
<circle cx="622.06" cy="307.96" r="4.40" fill="#f59e0b" stroke="#7c2d12" stroke-width="0.8" opacity="0.95"/>
<circle cx="741.11" cy="349.16" r="2.80" fill="#94a3b8" stroke="#ffffff" stroke-width="0.5" opacity="0.75"/>
<circle cx="799.33" cy="450.00" r="2.80" fill="#94a3b8" stroke="#ffffff" stroke-width="0.5" opacity="0.75"/>
<circle cx="279.20" cy="638.37" r="2.80" fill="#94a3b8" stroke="#ffffff" stroke-width="0.5" opacity="0.75"/>
<circle cx="229.54" cy="667.04" r="4.40" fill="#f59e0b" stroke="#7c2d12" stroke-width="0.8" opacity="0.95"/>
<line x1="259.49" y1="644.92" x2="269.49" y2="654.92" stroke="#059669" stroke-width="2.4"/>
<line x1="259.49" y1="654.92" x2="269.49" y2="644.92" stroke="#059669" stroke-width="2.4"/>
<text x="271.49" y="661.92" font-family="sans-serif" font-size="9" fill="#065f46">C1:17</text>
<line x1="671.36" y1="609.60" x2="681.36" y2="619.60" stroke="#059669" stroke-width="2.4"/>
<line x1="671.36" y1="619.60" x2="681.36" y2="609.60" stroke="#059669" stroke-width="2.4"/>
<text x="683.36" y="626.60" font-family="sans-serif" font-size="9" fill="#065f46">C2:7</text>
<line x1="495.65" y1="622.94" x2="505.65" y2="632.94" stroke="#059669" stroke-width="2.4"/>
<line x1="495.65" y1="632.94" x2="505.65" y2="622.94" stroke="#059669" stroke-width="2.4"/>
<text x="507.65" y="639.94" font-family="sans-serif" font-size="9" fill="#065f46">C3:11</text>
<line x1="376.58" y1="479.23" x2="386.58" y2="489.23" stroke="#059669" stroke-width="2.4"/>
<line x1="376.58" y1="489.23" x2="386.58" y2="479.23" stroke="#059669" stroke-width="2.4"/>
<text x="388.58" y="496.23" font-family="sans-serif" font-size="9" fill="#065f46">C4:1</text>
<line x1="469.90" y1="419.44" x2="479.90" y2="429.44" stroke="#059669" stroke-width="2.4"/>
<line x1="469.90" y1="429.44" x2="479.90" y2="419.44" stroke="#059669" stroke-width="2.4"/>
<text x="481.90" y="436.44" font-family="sans-serif" font-size="9" fill="#065f46">C5:5</text>
<line x1="457.06" y1="274.98" x2="467.06" y2="284.98" stroke="#059669" stroke-width="2.4"/>
<line x1="457.06" y1="284.98" x2="467.06" y2="274.98" stroke="#059669" stroke-width="2.4"/>
<text x="469.06" y="291.98" font-family="sans-serif" font-size="9" fill="#065f46">C6:15</text>
<line x1="469.83" y1="402.13" x2="479.83" y2="412.13" stroke="#059669" stroke-width="2.4"/>
<line x1="469.83" y1="412.13" x2="479.83" y2="402.13" stroke="#059669" stroke-width="2.4"/>
<text x="481.83" y="419.13" font-family="sans-serif" font-size="9" fill="#065f46">C7:4</text>
<line x1="215.46" y1="348.82" x2="225.46" y2="358.82" stroke="#059669" stroke-width="2.4"/>
<line x1="215.46" y1="358.82" x2="225.46" y2="348.82" stroke="#059669" stroke-width="2.4"/>
<text x="227.46" y="365.82" font-family="sans-serif" font-size="9" fill="#065f46">C8:9</text>
<line x1="616.01" y1="303.80" x2="626.01" y2="313.80" stroke="#dc2626" stroke-width="2.4"/>
<line x1="616.01" y1="313.80" x2="626.01" y2="303.80" stroke="#dc2626" stroke-width="2.4"/>
<text x="628.01" y="320.80" font-family="sans-serif" font-size="9" fill="#065f46">C9:3</text>
<line x1="617.06" y1="302.96" x2="627.06" y2="312.96" stroke="#059669" stroke-width="2.4"/>
<line x1="617.06" y1="312.96" x2="627.06" y2="302.96" stroke="#059669" stroke-width="2.4"/>
<text x="629.06" y="319.96" font-family="sans-serif" font-size="9" fill="#065f46">C10:3</text>
<line x1="589.53" y1="368.81" x2="599.53" y2="378.81" stroke="#059669" stroke-width="2.4"/>
<line x1="589.53" y1="378.81" x2="599.53" y2="368.81" stroke="#059669" stroke-width="2.4"/>
<text x="601.53" y="385.81" font-family="sans-serif" font-size="9" fill="#065f46">C11:16</text>
<line x1="249.66" y1="648.45" x2="259.66" y2="658.45" stroke="#059669" stroke-width="2.4"/>
<line x1="249.66" y1="658.45" x2="259.66" y2="648.45" stroke="#059669" stroke-width="2.4"/>
<text x="261.66" y="665.45" font-family="sans-serif" font-size="9" fill="#065f46">C12:6</text>
<circle cx="450.00" cy="450.00" r="6.00" fill="#16a34a" stroke="#14532d" stroke-width="1.2" opacity="1.0"/>
<text x="458.00" y="466.00" font-family="sans-serif" font-size="10">START</text>
<rect x="249.66" y="648.45" width="10" height="10" fill="#111827"/>
<text x="262.66" y="645.45" font-family="sans-serif" font-size="10">END</text>
<rect x="66" y="758" width="320" height="115" rx="6" fill="#ffffff" stroke="#cbd5e1" opacity="0.94"/>
<circle cx="78" cy="778" r="4" fill="#2563eb"/>
<text x="89" y="782" font-family="sans-serif" font-size="11" fill="#1f2937">route</text>
<circle cx="78" cy="795" r="4" fill="#94a3b8"/>
<text x="89" y="799" font-family="sans-serif" font-size="11" fill="#1f2937">no-signal-only measurement site</text>
<circle cx="78" cy="812" r="4" fill="#f59e0b"/>
<text x="89" y="816" font-family="sans-serif" font-size="11" fill="#1f2937">site with &gt;=1 signal</text>
<circle cx="78" cy="829" r="4" fill="#059669"/>
<text x="89" y="833" font-family="sans-serif" font-size="11" fill="#1f2937">successful clear; Corder:channel</text>
<text x="450.0" y="884" text-anchor="middle" font-family="sans-serif" font-size="12" fill="#374151">520 measurements at 37 sites; 489 no-signal; 31 signal; 33569 m movement</text>
</svg>